# Blender 4.1.1
# www.blender.org
mtllib door_frame.mtl
o Cube
v -0.036479 -0.035783 0.066794
v -0.036479 2.804479 0.066794
v -0.036479 -0.035783 -0.066794
v -0.036479 2.804479 -0.066794
v 1.763520 -0.035783 0.066794
v 1.763520 2.804479 0.066794
v 1.763520 -0.035783 -0.066794
v 1.763520 2.804479 -0.066794
v -0.036479 2.729340 0.066794
v -0.036479 2.729340 -0.066794
v 1.763520 2.729340 -0.066794
v 1.763520 2.729340 0.066794
v 0.086248 -0.035783 -0.066794
v 0.086248 2.804479 -0.066794
v 0.086248 -0.035783 0.066794
v 0.086248 2.804479 0.066794
v 0.086248 2.729340 0.066794
v 0.086248 2.729340 -0.066794
v 1.620339 2.804479 -0.066794
v 1.620339 -0.035783 0.066794
v 1.620339 2.729340 -0.066794
v 1.620339 -0.035783 -0.066794
v 1.620339 2.804479 0.066794
v 1.620339 2.729340 0.066794
vn -1.0000 -0.0000 -0.0000
vn -0.0000 -0.0000 -1.0000
vn 1.0000 -0.0000 -0.0000
vn -0.0000 -0.0000 1.0000
vn -0.0000 -1.0000 -0.0000
vn -0.0000 1.0000 -0.0000
vt 0.618386 0.000000
vt 0.625000 0.000000
vt 0.625000 0.250000
vt 0.618386 0.250000
vt 0.625000 0.480114
vt 0.618386 0.500000
vt 0.618386 0.480114
vt 0.625000 0.500000
vt 0.618386 0.750000
vt 0.625000 0.982955
vt 0.618386 1.000000
vt 0.618386 0.982955
vt 0.355114 0.500000
vt 0.375000 0.500000
vt 0.375000 0.750000
vt 0.355114 0.750000
vt 0.875000 0.500000
vt 0.857955 0.750000
vt 0.857955 0.500000
vt 0.375000 1.000000
vt 0.375000 0.982955
vt 0.375000 0.480114
vt 0.375000 0.250000
vt 0.375000 0.000000
vt 0.375000 0.267045
vt 0.644886 0.750000
vt 0.644886 0.500000
vt 0.142045 0.500000
vt 0.125000 0.750000
vt 0.125000 0.500000
vt 0.625000 0.769886
vt 0.618386 0.769886
vt 0.618386 0.267045
vt 0.625000 0.750000
vt 0.375000 0.769886
vt 0.625000 0.267045
vt 0.875000 0.750000
vt 0.142045 0.750000
vt 0.625000 1.000000
s 0
f 9/1/1 2/2/1 4/3/1 10/4/1
f 19/5/2 11/6/2 21/7/2
f 8/8/3 12/9/3 11/6/3
f 16/10/4 9/11/4 17/12/4
f 22/13/5 7/14/5 5/15/5 20/16/5
f 4/17/6 16/18/6 14/19/6
f 17/12/4 1/20/4 15/21/4
f 11/6/3 5/15/3 7/14/3
f 21/7/2 7/14/2 22/22/2
f 9/1/1 3/23/1 1/24/1
f 10/4/2 13/25/2 3/23/2
f 14/19/6 23/26/6 19/27/6
f 13/28/5 1/29/5 3/30/5
f 23/31/4 17/12/4 24/32/4
f 4/3/2 18/33/2 10/4/2
f 6/34/4 24/32/4 12/9/4
f 19/27/6 6/34/6 8/8/6
f 12/9/4 20/35/4 5/15/4
f 14/36/2 21/7/2 18/33/2
f 19/5/2 8/8/2 11/6/2
f 8/8/3 6/34/3 12/9/3
f 4/17/6 2/37/6 16/18/6
f 17/12/4 9/11/4 1/20/4
f 11/6/3 12/9/3 5/15/3
f 21/7/2 11/6/2 7/14/2
f 10/4/2 18/33/2 13/25/2
f 14/19/6 16/18/6 23/26/6
f 13/28/5 15/38/5 1/29/5
f 23/31/4 16/10/4 17/12/4
f 4/3/2 14/36/2 18/33/2
f 19/27/6 23/26/6 6/34/6
f 14/36/2 19/5/2 21/7/2
f 16/10/4 2/39/4 9/11/4
f 9/1/1 10/4/1 3/23/1
f 6/34/4 23/31/4 24/32/4
f 12/9/4 24/32/4 20/35/4
