# Blender 4.1.1
# www.blender.org
mtllib fence1.mtl
o concrete_fence_Cube.017
v -0.111717 -1.409223 -5.643719
v 0.038277 -1.409223 -5.642427
v -0.111717 1.590777 -5.643720
v 0.038277 1.590777 -5.642426
v -0.133246 -1.409223 -3.143814
v 0.016748 -1.409223 -3.142522
v -0.133246 1.590777 -3.143813
v 0.016748 1.590777 -3.142523
vn -0.5823 -0.5773 0.5724
vn 0.5724 0.5773 0.5823
vn -0.5823 0.5773 0.5723
vn -0.5724 -0.5773 -0.5823
vn 0.5724 -0.5774 0.5823
vn 0.5823 -0.5773 -0.5724
vn 0.5823 0.5774 -0.5723
vn -0.5724 0.5773 -0.5823
vt 0.022662 0.205253
vt 0.049696 0.745919
vt 0.022663 0.745919
vt 0.500250 0.178220
vt 0.049696 0.205253
vt 0.049696 0.178220
vt 0.500250 0.205253
vt 0.049696 0.772952
vt 0.500250 0.745919
vt 0.500251 0.772952
vt 0.527284 0.745919
vt 0.527284 0.205253
vt 0.977838 0.745919
vt 0.977838 0.205253
s 1
usemtl Material.024
f 5/1/1 8/2/2 7/3/3
f 1/4/4 6/5/5 5/6/1
f 2/7/6 8/2/2 6/5/5
f 7/8/3 4/9/7 3/10/8
f 2/7/6 3/11/8 4/9/7
f 1/12/4 7/13/3 3/11/8
f 5/1/1 6/5/5 8/2/2
f 1/4/4 2/7/6 6/5/5
f 2/7/6 4/9/7 8/2/2
f 7/8/3 8/2/2 4/9/7
f 2/7/6 1/12/4 3/11/8
f 1/12/4 5/14/1 7/13/3
o concrete_fence_Cube.018
v -0.133263 -1.409223 -3.141801
v 0.016731 -1.409223 -3.140510
v -0.133263 1.590777 -3.141802
v 0.016731 1.590777 -3.140508
v -0.154792 -1.409223 -0.641896
v -0.004797 -1.409223 -0.640604
v -0.154792 1.590777 -0.641895
v -0.004798 1.590777 -0.640605
vn -0.5823 -0.5773 0.5724
vn 0.5724 0.5773 0.5823
vn -0.5823 0.5773 0.5723
vn -0.5724 -0.5773 -0.5823
vn 0.5724 -0.5774 0.5823
vn 0.5823 -0.5773 -0.5724
vn 0.5823 0.5774 -0.5723
vn -0.5724 0.5773 -0.5823
vt 0.022662 0.205253
vt 0.049696 0.745919
vt 0.022663 0.745919
vt 0.500250 0.178220
vt 0.049696 0.205253
vt 0.049696 0.178220
vt 0.500250 0.205253
vt 0.049696 0.772952
vt 0.500250 0.745919
vt 0.500251 0.772952
vt 0.527284 0.745919
vt 0.527284 0.205253
vt 0.977838 0.745919
vt 0.977838 0.205253
s 1
usemtl Material.025
f 13/15/9 16/16/10 15/17/11
f 9/18/12 14/19/13 13/20/9
f 10/21/14 16/16/10 14/19/13
f 15/22/11 12/23/15 11/24/16
f 10/21/14 11/25/16 12/23/15
f 9/26/12 15/27/11 11/25/16
f 13/15/9 14/19/13 16/16/10
f 9/18/12 10/21/14 14/19/13
f 10/21/14 12/23/15 16/16/10
f 15/22/11 16/16/10 12/23/15
f 10/21/14 9/26/12 11/25/16
f 9/26/12 13/28/9 15/27/11
o concrete_fence_Cube.019
v -0.090000 -1.409225 -8.165522
v 0.059995 -1.409225 -8.164230
v -0.090000 1.590775 -8.165523
v 0.059995 1.590775 -8.164228
v -0.111528 -1.409223 -5.665617
v 0.038466 -1.409223 -5.664325
v -0.111529 1.590777 -5.665616
v 0.038466 1.590777 -5.664326
vn -0.5823 -0.5773 0.5724
vn 0.5724 0.5773 0.5823
vn -0.5823 0.5773 0.5723
vn -0.5724 -0.5773 -0.5823
vn 0.5724 -0.5774 0.5823
vn 0.5823 -0.5773 -0.5724
vn 0.5823 0.5774 -0.5723
vn -0.5723 0.5773 -0.5823
vt 0.022662 0.205253
vt 0.049696 0.745919
vt 0.022663 0.745919
vt 0.500250 0.178220
vt 0.049696 0.205253
vt 0.049696 0.178220
vt 0.500250 0.205253
vt 0.049696 0.772952
vt 0.500250 0.745919
vt 0.500251 0.772952
vt 0.527284 0.745919
vt 0.527284 0.205253
vt 0.977838 0.745919
vt 0.977838 0.205253
s 1
usemtl Material.026
f 21/29/17 24/30/18 23/31/19
f 17/32/20 22/33/21 21/34/17
f 18/35/22 24/30/18 22/33/21
f 23/36/19 20/37/23 19/38/24
f 18/35/22 19/39/24 20/37/23
f 17/40/20 23/41/19 19/39/24
f 21/29/17 22/33/21 24/30/18
f 17/32/20 18/35/22 22/33/21
f 18/35/22 20/37/23 24/30/18
f 23/36/19 24/30/18 20/37/23
f 18/35/22 17/40/20 19/39/24
f 17/40/20 21/42/17 23/41/19
o concrete_fence_Cube.020
v -0.155024 -1.409223 -0.614871
v -0.005030 -1.409223 -0.613579
v -0.155024 1.590777 -0.614872
v -0.005030 1.590777 -0.613578
v -0.176553 -1.409223 1.885034
v -0.026558 -1.409223 1.886326
v -0.176553 1.590777 1.885035
v -0.026559 1.590777 1.886325
vn -0.5823 -0.5773 0.5724
vn 0.5724 0.5773 0.5823
vn -0.5823 0.5773 0.5723
vn -0.5724 -0.5773 -0.5823
vn 0.5724 -0.5774 0.5823
vn 0.5823 -0.5773 -0.5724
vn 0.5823 0.5774 -0.5723
vn -0.5723 0.5773 -0.5823
vt 0.022662 0.205253
vt 0.049696 0.745919
vt 0.022663 0.745919
vt 0.500250 0.178220
vt 0.049696 0.205253
vt 0.049696 0.178220
vt 0.500250 0.205253
vt 0.049696 0.772952
vt 0.500250 0.745919
vt 0.500251 0.772952
vt 0.527284 0.745919
vt 0.527284 0.205253
vt 0.977838 0.745919
vt 0.977838 0.205253
s 1
usemtl Material.027
f 29/43/25 32/44/26 31/45/27
f 25/46/28 30/47/29 29/48/25
f 26/49/30 32/44/26 30/47/29
f 31/50/27 28/51/31 27/52/32
f 26/49/30 27/53/32 28/51/31
f 25/54/28 31/55/27 27/53/32
f 29/43/25 30/47/29 32/44/26
f 25/46/28 26/49/30 30/47/29
f 26/49/30 28/51/31 32/44/26
f 31/50/27 32/44/26 28/51/31
f 26/49/30 25/54/28 27/53/32
f 25/54/28 29/56/25 31/55/27
o concrete_fence_Cube.021
v -0.198288 -1.409223 4.408849
v -0.048294 -1.409223 4.410141
v -0.198288 1.590778 4.408848
v -0.048294 1.590778 4.410141
v -0.219817 -1.409221 6.908754
v -0.069822 -1.409221 6.910046
v -0.219817 1.590779 6.908755
v -0.069823 1.590779 6.910045
vn -0.5823 -0.5773 0.5724
vn 0.5724 0.5773 0.5823
vn -0.5823 0.5773 0.5723
vn -0.5724 -0.5773 -0.5823
vn 0.5724 -0.5774 0.5823
vn 0.5823 -0.5773 -0.5724
vn 0.5823 0.5774 -0.5724
vn -0.5724 0.5773 -0.5823
vt 0.022662 0.205253
vt 0.049696 0.745919
vt 0.022663 0.745919
vt 0.500250 0.178220
vt 0.049696 0.205253
vt 0.049696 0.178220
vt 0.500250 0.205253
vt 0.049696 0.772952
vt 0.500250 0.745919
vt 0.500251 0.772952
vt 0.527284 0.745919
vt 0.527284 0.205253
vt 0.977838 0.745919
vt 0.977838 0.205253
s 1
usemtl Material.028
f 37/57/33 40/58/34 39/59/35
f 33/60/36 38/61/37 37/62/33
f 34/63/38 40/58/34 38/61/37
f 39/64/35 36/65/39 35/66/40
f 34/63/38 35/67/40 36/65/39
f 33/68/36 39/69/35 35/67/40
f 37/57/33 38/61/37 40/58/34
f 33/60/36 34/63/38 38/61/37
f 34/63/38 36/65/39 40/58/34
f 39/64/35 40/58/34 36/65/39
f 34/63/38 33/68/36 35/67/40
f 33/68/36 37/70/33 39/69/35
o concrete_fence_Cube.022
v -0.176742 -1.409223 1.906932
v -0.026747 -1.409223 1.908223
v -0.176742 1.590777 1.906931
v -0.026747 1.590777 1.908224
v -0.198270 -1.409223 4.406837
v -0.048276 -1.409223 4.408129
v -0.198271 1.590778 4.406838
v -0.048276 1.590778 4.408128
vn -0.5823 -0.5773 0.5724
vn 0.5724 0.5773 0.5823
vn -0.5823 0.5773 0.5723
vn -0.5724 -0.5773 -0.5823
vn 0.5724 -0.5774 0.5823
vn 0.5823 -0.5773 -0.5724
vn 0.5823 0.5774 -0.5724
vn -0.5724 0.5773 -0.5823
vt 0.022662 0.205253
vt 0.049696 0.745919
vt 0.022663 0.745919
vt 0.500250 0.178220
vt 0.049696 0.205253
vt 0.049696 0.178220
vt 0.500250 0.205253
vt 0.049696 0.772952
vt 0.500250 0.745919
vt 0.500251 0.772952
vt 0.527284 0.745919
vt 0.527284 0.205253
vt 0.977838 0.745919
vt 0.977838 0.205253
s 1
usemtl Material.029
f 45/71/41 48/72/42 47/73/43
f 41/74/44 46/75/45 45/76/41
f 42/77/46 48/72/42 46/75/45
f 47/78/43 44/79/47 43/80/48
f 42/77/46 43/81/48 44/79/47
f 41/82/44 47/83/43 43/81/48
f 45/71/41 46/75/45 48/72/42
f 41/74/44 42/77/46 46/75/45
f 42/77/46 44/79/47 48/72/42
f 47/78/43 48/72/42 44/79/47
f 42/77/46 41/82/44 43/81/48
f 41/82/44 45/84/41 47/83/43
