# Blender 4.1.1
# www.blender.org
mtllib Glock.mtl
o Cube.001
v -0.051124 0.007826 -0.179068
v -0.051124 0.147539 -0.188601
v 0.051125 0.007826 -0.179068
v 0.051125 0.147539 -0.188601
v -0.051124 0.001633 0.325858
v -0.051124 0.147539 0.325858
v 0.051125 0.001633 0.325858
v 0.051125 0.147539 0.325858
v 0.051125 -0.005322 -0.019645
v 0.051125 0.147539 -0.028637
v -0.051124 -0.005322 -0.019645
v -0.051124 0.147539 -0.028637
v 0.051125 -0.216803 -0.197593
v -0.051124 -0.216803 -0.197593
v 0.051125 -0.229951 -0.038171
v -0.051124 -0.229951 -0.038171
vn -0.0000 -0.0681 -0.9977
vn 1.0000 -0.0000 -0.0000
vn -0.0000 -0.0000 1.0000
vn -1.0000 -0.0000 -0.0000
vn -0.0000 -0.9998 0.0201
vn -0.0000 1.0000 -0.0000
vn -0.0000 -0.0822 0.9966
vn -0.0000 -0.9966 -0.0822
vn -0.0000 0.0822 -0.9966
vt 0.625000 0.000000
vt 0.375000 0.250000
vt 0.375000 0.000000
vt 0.625000 0.327734
vt 0.375000 0.500000
vt 0.375000 0.327734
vt 0.625000 0.500000
vt 0.375000 0.750000
vt 0.625000 0.922266
vt 0.375000 1.000000
vt 0.375000 0.922266
vt 0.202734 0.750000
vt 0.202734 0.500000
vt 0.875000 0.500000
vt 0.797266 0.750000
vt 0.797266 0.500000
vt 0.625000 0.750000
vt 0.125000 0.750000
vt 0.125000 0.500000
vt 0.625000 0.250000
vt 0.625000 1.000000
vt 0.875000 0.750000
s 0
f 2/1/1 3/2/1 1/3/1
f 10/4/2 7/5/2 9/6/2
f 8/7/3 5/8/3 7/5/3
f 12/9/4 1/10/4 11/11/4
f 7/5/5 11/12/5 9/13/5
f 4/14/6 12/15/6 10/16/6
f 10/16/6 6/17/6 8/7/6
f 11/12/7 15/13/7 9/13/7
f 5/8/4 12/9/4 11/11/4
f 3/2/2 10/4/2 9/6/2
f 15/13/8 14/18/8 13/19/8
f 9/6/2 13/2/2 3/2/2
f 3/2/9 14/3/9 1/3/9
f 11/11/4 14/10/4 16/11/4
f 2/1/1 4/20/1 3/2/1
f 10/4/2 8/7/2 7/5/2
f 8/7/3 6/17/3 5/8/3
f 12/9/4 2/21/4 1/10/4
f 7/5/5 5/8/5 11/12/5
f 4/14/6 2/22/6 12/15/6
f 10/16/6 12/15/6 6/17/6
f 11/12/7 16/12/7 15/13/7
f 5/8/4 6/17/4 12/9/4
f 3/2/2 4/20/2 10/4/2
f 15/13/8 16/12/8 14/18/8
f 9/6/2 15/6/2 13/2/2
f 3/2/9 13/2/9 14/3/9
f 11/11/4 1/10/4 14/10/4
